<?xml version="1.0" encoding="iso-8859-1"?>
<!-- Generator: Adobe Illustrator 19.0.0, SVG Export Plug-In . SVG Version: 6.00 Build 0)  -->
<svg version="1.1" id="Layer_1" xmlns="http://www.w3.org/2000/svg" xmlns:xlink="http://www.w3.org/1999/xlink" x="0px" y="0px"
	 viewBox="0 0 512 512" style="enable-background:new 0 0 512 512;" xml:space="preserve">
<g>
	<g>
		<path d="M511.714,419.885l-24.798-186.789c-6.298-47.433-43.219-84.503-89.12-92.313V125.71c0-2.389,1.943-4.332,4.332-4.332
			h8.477c5.841,0,11.349-2.275,15.536-6.432c4.149-4.146,6.434-9.664,6.434-15.537c0-47.211-38.402-85.62-85.603-85.62h-143.58
			c-22.871,0-44.369,8.903-60.538,25.072c-16.165,16.181-25.065,37.684-25.065,60.548c0,12.113,9.855,21.968,21.969,21.968h8.477
			c2.389,0,4.332,1.943,4.332,4.332v14.651c-42.995,6.239-78.542,38.114-89.289,80.385h-52.86C4.664,220.744,0,225.407,0,231.161
			s4.664,10.417,10.417,10.417h49.323L36.069,419.885c-1.245,9.373,1.615,18.829,7.845,25.94
			c5.867,6.696,14.184,10.702,23.029,11.146v30.822c0,5.754,4.664,10.417,10.417,10.417h63.509c5.753,0,10.417-4.663,10.417-10.417
			v-30.778H396.5v30.778c0,5.754,4.664,10.417,10.417,10.417h63.509c5.753,0,10.417-4.663,10.417-10.417v-30.822
			c8.845-0.444,17.162-4.45,23.029-11.146C510.099,438.711,512.96,429.258,511.714,419.885z M148.233,100.543h-8.477
			c-0.626,0-1.135-0.508-1.135-1.133c0-17.302,6.738-33.577,18.966-45.818c12.231-12.231,28.497-18.966,45.802-18.966h143.58
			c35.713,0,64.769,29.063,64.769,64.785c0,0.315-0.111,0.585-0.304,0.778c-0.36,0.357-0.714,0.357-0.831,0.357h-8.477
			c-13.877,0-25.167,11.289-25.167,25.167v13.527H173.399v-13.527C173.399,111.833,162.11,100.543,148.233,100.543z M130.45,477.377
			H87.775v-20.361h42.674V477.377z M460.007,477.377h-42.674v-20.361h42.674V477.377z M488.197,432.097
			c-2.308,2.633-5.507,4.085-9.01,4.085H68.595c-3.502,0-6.702-1.451-9.01-4.085c-2.308-2.633-3.325-5.996-2.864-9.469
			l24.798-186.789c5.735-43.194,42.916-75.766,86.489-75.766h211.765c43.572,0,80.754,32.573,86.489,75.766l24.799,186.789
			C491.521,426.098,490.506,429.462,488.197,432.097z"/>
	</g>
</g>
<g>
	<g>
		<circle cx="289.001" cy="68.657" r="10.417"/>
	</g>
</g>
<g>
	<g>
		<circle cx="195.843" cy="80.151" r="10.417"/>
	</g>
</g>
<g>
	<g>
		<circle cx="243.207" cy="107.965" r="10.417"/>
	</g>
</g>
<g>
	<g>
		<circle cx="340.198" cy="114.673" r="10.417"/>
	</g>
</g>
<g>
</g>
<g>
</g>
<g>
</g>
<g>
</g>
<g>
</g>
<g>
</g>
<g>
</g>
<g>
</g>
<g>
</g>
<g>
</g>
<g>
</g>
<g>
</g>
<g>
</g>
<g>
</g>
<g>
</g>
</svg>
